Eden.2012.FESTiVAL.DVDRip.XviD-EXViD
 
http://imdb.com/title/tt1734433/

Stats
 Format                           : AVI
 Format/Info                      : Audio Video Interleave
 File size                        : 700 MiB
 Duration                         : 1h 34mn
 Overall bit rate                 : 1 041 Kbps
 Writing application              : VirtualDubMod 1.5.10.2 (build 2540/release
 Writing library                  : VirtualDubMod build 2540/release

 Video
 ID                               : 0
 Format                           : MPEG-4 Visual
 Format profile                   : Advanced SimpleL5
 Format settings, BVOP            : Yes
 Format settings, QPel            : No
 Format settings, GMC             : No warppoints
 Format settings, Matrix          : Default (H.263
 Muxing mode                      : Packed bitstream
 Codec ID                         : XVID
 Codec ID/Hint                    : XviD
 Duration                         : 1h 34mn
 Bit rate                         : 907 Kbps
 Width                            : 640 pixels
 Height                           : 272 pixels
 Display aspect ratio             : 2.35:1
 Frame rate                       : 25.000 fps
 Color space                      : YUV
 Chroma subsampling               : 4:2:0
 Bit depth                        : 8 bits
 Scan type                        : Progressive
 Bits/(PixelFrame)               : 0.208
 Stream size                      : 610 MiB (87
 Writing library                  : XviD 64

 Audio
 ID                               : 1
 Format                           : MPEG Audio
 Format version                   : Version 1
 Format profile                   : Layer 3
 Mode                             : Joint stereo
 Mode extension                   : MS Stereo
 Codec ID                         : 55
 Codec ID/Hint                    : MP3
 Duration                         : 1h 34mn
 Bit rate mode                    : Variable
 Bit rate                         : 128 Kbps
 Channel(s)                       : 2 channels
 Sampling rate                    : 48.0 KHz
 Stream size                      : 82.0 MiB (12
 Alignment                        : Aligned on interleaves
 Interleave, duration             : 24 ms (0.60 video frame
 Interleave, preload duration     : 151 ms
 Writing library                  : LAME3.98r
 Encoding settings                : -m j -V 4 -q 2 -lowpass 17 --abr 128

 Release notes
 enjoy

 Looking for
 75TB Archives
 DUTCH/FLEMiSH Archives